# AST/ASF file generated using VICON BodyLanguage
# -----------------------------------------------
:version 1.10
:name VICON
:units
  mass 1.0
  length 0.45
  angle deg
:documentation
   .ast/.asf automatically generated from VICON data using
   VICON BodyBuilder and BodyLanguage model FoxedUp or BRILLIANT.MOD
:root
   order TX TY TZ RX RY RZ
   axis XYZ
   position 0 0 0  
   orientation 0 0 0 
:bonedata
  begin
     id 1 
     name lhipjoint
     direction 0.671379 -0.66392 0.329334 
     length 2.38647 
     axis 0 0 0  XYZ
  end
  begin
     id 2 
     name lfemur
     direction 0.34202 -0.939693 0  
     length 6.48179  
     axis 0 0 20  XYZ
    dof rx ry rz
    limits (-160.0 20.0)
           (-70.0 70.0)
           (-60.0 70.0)
  end
  begin
     id 3 
     name ltibia
     direction 0.34202 -0.939693 0   
     length 6.86524   
     axis 0 0 20   XYZ
    dof rx
    limits (-10.0 170.0)
  end
  begin
     id 4 
     name lfoot
     direction 0.204886 -0.562919 0.800715   
     length 1.73031   
     axis -90 7.62852e-016 20   XYZ
    dof rx rz
    limits (-45.0 90.0)
           (-70.0 20.0)
  end
  begin
     id 5 
     name ltoes
     direction 1.53548e-011 -4.21841e-011 1   
     length 0.828161   
     axis -90 7.62852e-016 20   XYZ
    dof rx
    limits (-90.0 20.0)
  end
  begin
     id 6 
     name rhipjoint
     direction -0.662732 -0.670855 0.332775   
     length 2.3618  
     axis 0 0 0  XYZ 
  end
  begin
     id 7 
     name rfemur
     direction -0.34202 -0.939693 0   
     length 6.3025   
     axis 0 0 -20   XYZ
    dof rx ry rz
    limits (-160.0 20.0)
           (-70.0 70.0)
           (-70.0 60.0)
  end
  begin
     id 8 
     name rtibia
     direction -0.34202 -0.939693 0   
     length 6.8732   
     axis 0 0 -20   XYZ
    dof rx
    limits (-10.0 170.0)
 end
 begin
     id 9 
     name rfoot
     direction -0.173856 -0.477665 0.861168   
     length 1.54784  
     axis -90 -7.62852e-016 -20   XYZ
    dof rx rz
    limits (-45.0 90.0)
           (-20.0 70.0)
  end
  begin
     id 10 
     name rtoes
     direction -1.53562e-011 -4.21802e-011 1   
     length 0.759618   
     axis -90 -7.62852e-016 -20   XYZ
    dof rx
    limits (-90.0 20.0)
  end
  begin
     id 11 
     name lowerback
     direction -0.0278357 0.999497 -0.0151789   
     length 1.97203   
     axis 0 0 0   XYZ
    dof rx ry rz
    limits (-20.0 45.0)
           (-30.0 30.0)
           (-30.0 30.0)
  end
  begin
     id 12 
     name upperback
     direction -0.00360622 0.997542 0.0699804   
     length 1.94709   
     axis 0 0 0   XYZ
    dof rx ry rz
    limits (-20.0 45.0)
           (-30.0 30.0)
           (-30.0 30.0)
  end
  begin
     id 13 
     name thorax
     direction 0.00907706 0.997048 0.0762461   
     length 1.95722   
     axis 0 0 0   XYZ
    dof rx ry rz
    limits (-20.0 45.0)
           (-30.0 30.0)
           (-30.0 30.0)
  end
  begin
     id 14 
     name lowerneck
     direction -0.0481835 0.99872 -0.0153927   
     length 1.63078   
     axis 0 0 0   XYZ
    dof rx ry rz
    limits (-20.0 45.0)
           (-30.0 30.0)
           (-30.0 30.0)
  end
  begin
     id 15 
     name upperneck
     direction 0.0859716 0.979226 -0.183644   
     length 1.62591   
     axis 0 0 0   XYZ
    dof rx ry rz
    limits (-20.0 45.0)
           (-30.0 30.0)
           (-30.0 30.0)
  end
  begin
     id 16
     name head
     direction 0.0324821 0.997629 -0.0606773  
     length 1.64811  
     axis 0 0 0   XYZ
    dof rx ry rz
    limits (-20.0 45.0)
           (-30.0 30.0)
           (-30.0 30.0)
  end
  begin
     id 17 
     name lclavicle
     direction 0.939609 0.311019 0.142835  
     length 3.70647  
     axis 0 0 0   XYZ
    dof ry rz
    limits (-20.0 10.0)
           (0.0 20.0)
  end
  begin
     id 18 
     name lhumerus
     direction 1 -4.48963e-011 -1.59838e-027   
     length 4.59207   
     axis 180 -30 -90   XYZ
    dof rx ry rz
    limits (-60.0 90.0)
           (-90.0 90.0)
           (-90.0 90.0)
  end
  begin
     id 19
     name lradius
     direction 1 -4.48957e-011 -1.3483e-026   
     length 2.98109   
     axis 180 -30 -90   XYZ
    dof rx
    limits (-10.0 170.0)
  end
  begin
     id 20
     name lwrist
     direction 1 -4.48954e-011 -3.11579e-026   
     length 1.49055   
     axis 2.00652e-014 90 90   XYZ
    dof ry
    limits (-180.0 0.0)
 end
  begin
     id 21 
     name lhand
     direction 1 -4.4911e-011 -6.23158e-026   
     length 0.480203   
     axis 3.97628e-014 90 90   XYZ
    dof rx rz
    limits (-90.0 90.0)
           (-45.0 45.0)
  end
  begin
     id 22 
     name lfingers
     direction 1 -4.48893e-011 -1.24632e-025   
     length 0.387152   
     axis 7.95256e-014 90 90   XYZ
    dof rx
    limits (0.0 90.0)
  end
  begin
     id 23
     name lthumb
     direction 0.707107 -6.35013e-011 0.707107   
     length 0.555875   
     axis -90 45 2.85299e-015   XYZ
    dof rx rz
    limits (-45.0 45.0)
           (-45.0 45.0)
  end
  begin
     id 24 
     name rclavicle
     direction -0.950396 0.30392 0.0661859   
     length 3.70894  
     axis 0 0 0   XYZ 
    dof ry rz
    limits (-10.0 20.0)
           (-20.0 0.0)
  end
  begin
     id 25 
     name rhumerus
     direction -1 -4.48957e-011 -2.96677e-027  
     length 4.76508   
     axis 180 30 90   XYZ
    dof rx ry rz
    limits (-90.0 60.0)
           (-90.0 90.0)
           (-90.0 90.0)
  end
  begin
     id 26 
     name rradius
     direction -1 -4.48974e-011 -1.44501e-026   
     length 2.78902   
     axis 180 30 90   XYZ
    dof rx
    limits (-10.0 170.0)
  end
  begin
     id 27 
     name rwrist
     direction -1 -4.48978e-011 -3.11579e-026   
     length 1.39451   
     axis 2.00652e-014 -90 -90   XYZ
    dof ry
    limits (-180.0 0.0)
  end
  begin
     id 28
     name rhand
     direction -1 -4.48956e-011 -6.23158e-026   
     length 0.721303   
     axis 3.97628e-014 -90 -90   XYZ
    dof rx rz
    limits (-90.0 90.0)
           (-45.0 45.0)
  end
  begin
     id 29
     name rfingers
     direction -1 -4.4899e-011 -1.24632e-025   
     length 0.581533   
     axis 7.95256e-014 -90 -90   XYZ
    dof rx
    limits (0.0 90.0)
  end
  begin
     id 30
     name rthumb
     direction -0.707107 -6.34911e-011 0.707107   
     length 0.834968   
     axis -90 -45 -2.85299e-015   XYZ
    dof rx rz
    limits (-45.0 45.0)
           (-45.0 45.0)
  end
:hierarchy
  begin
    root lhipjoint rhipjoint lowerback
    lhipjoint lfemur
    lfemur ltibia
    ltibia lfoot
    lfoot ltoes
    rhipjoint rfemur
    rfemur rtibia
    rtibia rfoot
    rfoot rtoes
    lowerback upperback
    upperback thorax
    thorax lowerneck lclavicle rclavicle
    lowerneck upperneck
    upperneck head
    lclavicle lhumerus
    lhumerus lradius
    lradius lwrist
    lwrist lhand lthumb
    lhand lfingers
    rclavicle rhumerus
    rhumerus rradius
    rradius rwrist
    rwrist rhand rthumb
    rhand rfingers
  end

#!OML:ASF I:\salsa\salsa 7_09\Patient 1\Session 1\dancerfemale.ASF
:FULLY-SPECIFIED
:DEGREES
583
root -2.39751 16.1514 1.61672 363.321 -169.875 -1078.9
lowerback 5.99879 -2.61635 -2.04959
upperback -4.54075 -3.67106 2.27459
thorax -7.86621 -1.66686 4.01704
lowerneck -18.667 22.1079 -3.55912
upperneck 19.7101 29.3305 9.61282
head 6.99282 14.7058 6.38157
rclavicle -1.15544e-014 1.74931e-014
rhumerus -40.3814 -24.7811 -69.0867
rradius 49.7477
rwrist -9.03813
rhand 11.9824 57.7783
rfingers 7.12502
rthumb 37.004 31.7149
lclavicle -1.15544e-014 1.74931e-014
lhumerus -42.8192 -10.0832 112.758
lradius 136.835
lwrist -2.3404
lhand -45.1679 -316.773
lfingers 7.12502
lthumb -17.9452 432.419
rfemur -13.1009 17.9551 23.0923
rtibia 21.1633
rfoot -26.0111 16.1971
rtoes -2.66694
lfemur -13.7583 -8.67302 -6.99628
ltibia 40.6298
lfoot -5.51991 -22.4963
ltoes 9.83234
584
root -2.47594 16.2128 1.63457 364.795 -171.823 -1079.66
lowerback 5.63352 -2.2439 -2.28743
upperback -5.36809 -3.2715 1.91066
thorax -8.59075 -1.46351 3.7373
lowerneck -18.9913 22.1415 -3.75596
upperneck 19.9214 29.3144 10.2235
head 6.98349 14.755 6.6061
rclavicle 2.62147e-014 1.19271e-015
rhumerus -45.2425 -24.8581 -67.7151
rradius 54.0365
rwrist -15.0888
rhand 10.5681 56.7976
rfingers 7.12502
rthumb 35.6649 30.3995
lclavicle 2.62147e-014 1.19271e-015
lhumerus -40.8816 -11.9608 113.587
lradius 133.825
lwrist -2.96271
lhand -46.0625 -315.518
lfingers 7.12502
lthumb -18.8058 433.593
rfemur -15.0853 17.1374 21.5319
rtibia 21.7264
rfoot -26.9667 13.9828
rtoes -8.92774
lfemur -14.0138 -7.02369 -8.37631
ltibia 39.4303
lfoot -6.04688 -21.3049
ltoes 6.08852
585
root -2.55165 16.27 1.64579 366.327 -174.16 -1080.69
lowerback 5.25201 -1.57762 -2.82188
upperback -6.27969 -2.54544 1.45401
thorax -9.424 -1.09342 3.48487
lowerneck -19.4989 21.9994 -4.71277
upperneck 20.1934 29.1534 11.4198
head 6.82607 14.7665 7.04638
rclavicle -3.10353e-014 9.93923e-015
rhumerus -50.5094 -24.9163 -65.8445
rradius 57.8061
rwrist -21.2199
rhand 9.72167 56.0981
rfingers 7.12502
rthumb 34.8623 29.51
lclavicle -3.10353e-014 9.93923e-015
lhumerus -38.952 -14.4959 114.623
lradius 130.617
lwrist -4.02217
lhand -46.559 -314.224
lfingers 7.12502
lthumb -19.2832 434.84
rfemur -17.3604 14.9525 19.959
rtibia 22.7836
rfoot -27.8688 9.9603
rtoes -11.5954
lfemur -14.2824 -5.01711 -10.1224
ltibia 38.3486
lfoot -6.39118 -20.1527
ltoes 3.22263
586
root -2.61851 16.3132 1.65609 367.75 -176.822 -1081.51
lowerback 4.58627 -0.820174 -3.72651
upperback -6.90935 -1.69842 1.28782
thorax -9.78355 -0.641147 3.70997
lowerneck -20.2316 21.8155 -5.33262
upperneck 20.5443 29.2297 11.7951
head 6.90117 14.9381 7.3328
rclavicle -2.11954e-014 4.37326e-015
rhumerus -54.9443 -24.6091 -63.9449
rradius 60.4006
rwrist -25.7305
rhand 8.26838 56.3157
rfingers 7.12502
rthumb 33.4822 29.4185
lclavicle -2.11954e-014 4.37326e-015
lhumerus -36.1967 -17.4334 115.531
lradius 127.142
lwrist -5.51039
lhand -46.9575 -311.891
lfingers 7.12502
lthumb -19.6664 437.134
rfemur -19.9296 11.7695 19.0151
rtibia 24.5387
rfoot -29.0143 0.17132
rtoes -14.8414
lfemur -14.4976 -2.85003 -11.7109
ltibia 37.312
lfoot -6.40565 -18.7322
ltoes 5.30899
587
root -2.68546 16.335 1.66415 369.081 -179.723 -1082.06
lowerback 3.29085 -0.284479 -4.69837
upperback -7.11674 -1.05556 1.53197
thorax -9.29817 -0.285916 4.4166
lowerneck -21.1763 22.0226 -6.29742
upperneck 20.684 29.7635 11.7457
head 6.90977 15.1238 7.52996
rclavicle 5.81445e-015 -8.74653e-015
rhumerus -57.7881 -23.6002 -62.5687
rradius 61.5547
rwrist -28.358
rhand 6.83267 56.6715
rfingers 7.12502
rthumb 32.1164 29.489
lclavicle 5.81445e-015 -8.74653e-015
lhumerus -32.567 -20.0759 116.028
lradius 123.885
lwrist -6.64641
lhand -47.5658 -310.691
lfingers 7.12502
lthumb -20.2511 438.273
rfemur -22.8009 7.33784 18.9228
rtibia 26.8609
rfoot -27.7175 -15.441
rtoes -10.2365
lfemur -14.6547 -0.701874 -13.0651
ltibia 36.1705
lfoot -5.9656 -16.9747
ltoes 13.9237
588
root -2.73978 16.3339 1.65439 370.146 -182.966 -1083.31
lowerback 2.00819 -0.27851 -6.14854
upperback -7.33886 -0.210544 1.39069
thorax -8.86423 0.591533 4.91997
lowerneck -21.6267 22.172 -7.19828
upperneck 20.5133 30.215 11.6502
head 6.76221 15.2889 7.60589
rclavicle -2.83268e-015 -2.10712e-014
rhumerus -60.6333 -22.4766 -61.4928
rradius 61.7709
rwrist -29.5078
rhand 5.25095 56.7199
rfingers 7.12502
rthumb 30.6093 29.2447
lclavicle -2.83268e-015 -2.10712e-014
lhumerus -29.4398 -22.9538 116.312
lradius 121.105
lwrist -7.41493
lhand -48.0171 -309.197
lfingers 7.12502
lthumb -20.6849 439.721
rfemur -25.6631 2.07262 18.6427
rtibia 29.6172
rfoot -26.0547 -27.3424
rtoes 1.68235
lfemur -14.4694 1.41152 -15.1995
ltibia 34.9102
lfoot -5.98479 -15.7628
ltoes 15.8518
589
root -2.78105 16.3375 1.62845 370.781 -186.371 -1085.09
lowerback 1.154 0.400133 -7.5155
upperback -7.76382 0.68988 0.459652
thorax -8.97407 1.14272 4.6007
lowerneck -21.6288 22.1485 -7.5121
upperneck 20.2034 30.2342 11.7118
head 6.60151 15.3051 7.60272
rclavicle 7.65321e-015 -1.19271e-015
rhumerus -64.0247 -21.7807 -60.8252
rradius 61.0563
rwrist -29.0401
rhand 3.56474 56.9262
rfingers 7.12502
rthumb 29.0001 29.1624
lclavicle 7.65321e-015 -1.19271e-015
lhumerus -27.4257 -26.459 116.352
lradius 118.865
lwrist -7.73627
lhand -48.3824 -308.162
lfingers 7.12502
lthumb -21.0358 440.717
rfemur -28.5926 -3.97191 18.397
rtibia 32.6835
rfoot -24.123 -38.0805
rtoes 11.7022
lfemur -13.8958 3.49716 -17.8596
ltibia 33.5511
lfoot -6.276 -15.2683
ltoes 11.1312
590
root -2.82077 16.3368 1.60446 371.03 -190.001 -1086.94
lowerback 0.560532 1.17329 -7.99857
upperback -8.15976 1.74277 -1.13034
thorax -9.17214 1.68638 3.0658
lowerneck -21.6717 22.0348 -7.91283
upperneck 19.5258 30.0234 12.3625
head 6.23515 15.2852 7.70523
rclavicle -2.84511e-014 3.18055e-014
rhumerus -67.1427 -21.4913 -61.2562
rradius 59.8859
rwrist -28.2257
rhand 2.60262 56.1903
rfingers 7.12502
rthumb 28.0808 28.2721
lclavicle -2.84511e-014 3.18055e-014
lhumerus -25.8634 -30.5217 115.779
lradius 117.015
lwrist -7.66521
lhand -48.9619 -307.679
lfingers 7.12502
lthumb -21.5925 441.137
rfemur -31.9232 -11.7167 19.0133
rtibia 35.964
rfoot -23.1587 -42.1805
rtoes 18.7835
lfemur -13.1966 5.54945 -20.5504
ltibia 32.2562
lfoot -6.20219 -14.7022
ltoes 7.06429
591
root -2.85035 16.3143 1.58585 370.772 -193.773 -1088.71
lowerback 0.404057 2.02114 -8.61556
upperback -8.49406 2.86857 -2.60435
thorax -9.5476 2.28351 1.70631
lowerneck -21.8316 21.8023 -8.90793
upperneck 18.6415 29.7464 13.5148
head 5.66022 15.2704 7.95947
rclavicle -3.67627e-014 1.0635e-014
rhumerus -69.6247 -20.9815 -62.16
rradius 58.2284
rwrist -27.2518
rhand 1.99005 55.5094
rfingers 7.12502
rthumb 27.4951 27.4967
lclavicle -3.67627e-014 1.0635e-014
lhumerus -24.6258 -34.5394 115.574
lradius 115.388
lwrist -7.79277
lhand -49.8417 -307.487
lfingers 7.12502
lthumb -22.4372 441.229
rfemur -35.4828 -18.8622 20.267
rtibia 39.1964
rfoot -21.4208 -43.4824
rtoes 22.512
lfemur -12.3882 7.8064 -23.0531
ltibia 31.2065
lfoot -5.90086 -14.2101
ltoes 4.99023
592
root -2.86557 16.2713 1.56179 369.943 -197.743 -1090.32
lowerback 0.503626 2.855 -9.22298
upperback -8.64524 3.94311 -3.89289
thorax -9.84772 2.84102 0.525008
lowerneck -22.1923 21.536 -10.0915
upperneck 17.688 29.518 14.7493
head 5.05671 15.2784 8.27345
rclavicle 5.71817e-014 -4.52235e-014
rhumerus -71.0873 -20.3308 -63.6221
rradius 56.2796
rwrist -26.2739
rhand 2.52764 54.2591
rfingers 7.12502
rthumb 28.0091 26.3293
lclavicle 5.71817e-014 -4.52235e-014
lhumerus -23.3587 -38.1436 115.457
lradius 113.779
lwrist -8.22848
lhand -50.8468 -306.918
lfingers 7.12502
lthumb -23.4016 441.679
rfemur -38.9063 -25.3796 22.2815
rtibia 42.0646
rfoot -18.9707 -42.295
rtoes 21.5302
lfemur -11.418 9.94062 -25.2074
ltibia 30.8117
lfoot -6.01459 -13.5019
ltoes 3.1074
593
root -2.87285 16.2071 1.53383 368.556 -201.899 -1091.99
lowerback 0.82815 3.62242 -9.85494
upperback -8.66435 4.89325 -5.13186
thorax -10.1057 3.32849 -0.604387
lowerneck -22.9788 21.2171 -11.2577
upperneck 16.9716 29.2705 16.2332
head 4.56347 15.3034 8.74287
rclavicle -9.56651e-015 1.94809e-014
rhumerus -71.5807 -19.5592 -65.7561
rradius 54.0209
rwrist -25.2863
rhand 3.52433 53.8971
rfingers 7.12502
rthumb 28.9615 26.1267
lclavicle -9.56651e-015 1.94809e-014
lhumerus -22.1874 -41.2203 115.179
lradius 112.276
lwrist -8.94421
lhand -51.9696 -306.63
lfingers 7.12502
lthumb -24.4784 441.826
rfemur -41.8088 -30.1582 24.0924
rtibia 44.3682
rfoot -18.5566 -40.4337
rtoes 20.4178
lfemur -10.3651 12.0634 -27.2123
ltibia 31.0564
lfoot -6.4252 -12.7056
ltoes 1.98922
